<svg width="600" height="400" viewBox="0 0 600 400" xmlns="http://www.w3.org/2000/svg">
  <!-- Background -->
  <rect width="600" height="400" fill="#f0f9ff" rx="20" ry="20"/>
  
  <!-- Graph lines representing trading -->
  <path d="M50,300 C100,200 150,250 200,180 C250,100 300,150 350,120 C400,90 450,200 550,120" 
        stroke="#0ea5e9" fill="none" stroke-width="4"/>
  
  <!-- Opinion bubbles -->
  <circle cx="100" cy="200" r="30" fill="#bae6fd" opacity="0.7"/>
  <circle cx="200" cy="180" r="25" fill="#0ea5e9" opacity="0.7"/>
  <circle cx="300" cy="150" r="35" fill="#0369a1" opacity="0.7"/>
  <circle cx="400" cy="90" r="20" fill="#7dd3fc" opacity="0.7"/>
  <circle cx="480" cy="180" r="30" fill="#38bdf8" opacity="0.7"/>
  
  <!-- People silhouettes -->
  <rect x="90" y="320" width="30" height="60" rx="10" fill="#0c4a6e"/>
  <circle cx="105" cy="300" r="15" fill="#0c4a6e"/>
  
  <rect x="250" y="320" width="30" height="60" rx="10" fill="#0c4a6e"/>
  <circle cx="265" cy="300" r="15" fill="#0c4a6e"/>
  
  <rect x="410" y="320" width="30" height="60" rx="10" fill="#0c4a6e"/>
  <circle cx="425" cy="300" r="15" fill="#0c4a6e"/>
  
  <!-- Decorative elements -->
  <circle cx="50" cy="50" r="20" fill="#f59e0b" opacity="0.5"/>
  <circle cx="550" cy="50" r="25" fill="#10b981" opacity="0.5"/>
</svg> 